<?xml version="1.0" standalone="no"?>
<!DOCTYPE svg PUBLIC "-//W3C//DTD SVG 20010904//EN"
 "http://www.w3.org/TR/2001/REC-SVG-20010904/DTD/svg10.dtd">
<svg version="1.0" xmlns="http://www.w3.org/2000/svg"
 width="360.000000pt" height="200.000000pt" viewBox="0 0 360.000000 200.000000"
 preserveAspectRatio="xMidYMid meet">

<g transform="translate(0.000000,200.000000) scale(0.100000,-0.100000)"
fill="#000000" stroke="none">
<path d="M1460 1215 c-26 -32 13 -81 48 -59 34 22 22 74 -18 74 -10 0 -23 -7
-30 -15z"/>
<path d="M1190 1045 l0 -175 30 0 c30 0 30 1 30 55 0 30 2 55 4 55 2 0 28 -25
58 -56 48 -49 57 -55 88 -52 l35 3 -59 62 c-66 70 -66 62 8 141 l40 42 -41 0
c-37 0 -46 -5 -80 -45 -20 -25 -41 -45 -45 -45 -4 0 -8 43 -8 95 l0 95 -30 0
-30 0 0 -175z"/>
<path d="M2180 1045 l0 -175 30 0 30 0 0 175 0 175 -30 0 -30 0 0 -175z"/>
<path d="M3110 1160 l0 -60 -25 16 c-61 40 -156 -10 -171 -90 -9 -49 1 -79 37
-120 37 -42 75 -52 123 -32 20 8 36 11 36 5 0 -5 14 -9 30 -9 l30 0 0 175 0
175 -30 0 -30 0 0 -60z m-18 -107 c25 -23 24 -87 -2 -113 -34 -34 -82 -25
-106 22 -37 71 49 144 108 91z"/>
<path d="M236 1107 c-47 -47 -33 -78 66 -149 19 -13 21 -19 10 -29 -10 -11
-19 -11 -44 -1 -28 10 -35 10 -51 -7 -19 -19 -19 -19 9 -37 43 -29 101 -24
130 9 43 50 25 97 -54 139 -18 9 -32 22 -32 28 0 13 43 13 56 0 7 -7 16 -4 29
10 17 19 17 22 3 36 -8 9 -34 18 -56 21 -34 5 -44 1 -66 -20z"/>
<path d="M520 1113 c-17 -12 -25 -13 -28 -5 -2 7 -17 12 -33 12 l-29 0 0 -125
0 -125 30 0 30 0 0 73 c0 87 15 121 54 125 16 2 32 -2 37 -10 5 -7 9 -52 9
-100 l0 -88 35 0 35 0 0 81 c0 96 10 119 51 119 38 0 49 -27 49 -126 l0 -74
31 0 31 0 -4 111 c-3 102 -5 112 -27 130 -31 25 -82 24 -115 -2 l-26 -20 -26
20 c-32 25 -71 27 -104 4z"/>
<path d="M933 1110 c-97 -58 -76 -204 34 -241 28 -9 43 -8 80 6 56 22 83 63
83 126 0 101 -110 162 -197 109z m117 -60 c30 -30 27 -83 -6 -109 -35 -27 -59
-26 -89 4 -30 30 -32 64 -4 99 25 32 70 35 99 6z"/>
<path d="M1670 1113 c-17 -12 -25 -13 -28 -5 -2 7 -17 12 -33 12 l-29 0 0
-125 0 -125 29 0 28 0 6 86 c7 96 16 114 58 114 34 0 38 -11 41 -120 l3 -75
33 -3 34 -3 -4 106 c-3 103 -4 108 -31 131 -33 28 -73 31 -107 7z"/>
<path d="M1914 1111 c-40 -24 -58 -69 -51 -127 9 -86 90 -135 163 -100 29 14
34 14 34 1 0 -8 -9 -24 -21 -36 -17 -17 -29 -20 -60 -15 -21 3 -58 9 -81 12
l-42 6 15 -23 c52 -79 200 -76 234 5 11 25 15 73 15 161 l0 125 -30 0 c-16 0
-30 -5 -30 -10 0 -6 -13 -4 -30 5 -39 20 -78 19 -116 -4z m126 -61 c24 -24 26
-67 4 -98 -20 -29 -76 -30 -104 -2 -43 43 -11 120 50 120 17 0 39 -9 50 -20z"/>
<path d="M2353 1111 c-91 -57 -81 -196 17 -235 51 -20 65 -20 118 4 48 22 53
36 17 52 -19 9 -28 9 -37 0 -29 -29 -118 0 -118 38 0 6 40 10 100 10 l100 0 0
35 c0 26 -9 45 -33 71 -28 31 -41 37 -83 41 -37 3 -57 -1 -81 -16z m101 -37
c9 -4 21 -15 27 -25 9 -18 5 -19 -63 -19 l-73 1 28 24 c28 25 51 30 81 19z"/>
<path d="M2654 1111 c-40 -25 -58 -69 -52 -131 9 -88 80 -136 154 -105 25 10
40 12 42 5 2 -5 17 -10 33 -10 l29 0 0 125 0 125 -36 0 c-21 0 -33 -4 -29 -10
9 -15 -7 -12 -29 5 -27 20 -75 19 -112 -4z m112 -49 c57 -38 27 -142 -40 -142
-56 0 -87 89 -46 130 20 20 65 26 86 12z"/>
<path d="M3258 1110 c-53 -41 -36 -80 64 -152 19 -13 21 -19 10 -29 -10 -11
-19 -11 -44 -1 -28 10 -35 10 -51 -7 -19 -19 -19 -19 9 -37 43 -29 101 -24
130 9 43 50 25 97 -54 139 -18 9 -32 22 -32 28 0 13 43 13 56 0 7 -7 16 -4 29
10 17 19 17 22 3 36 -27 27 -89 29 -120 4z"/>
<path d="M1460 995 l0 -125 30 0 30 0 0 125 0 125 -30 0 -30 0 0 -125z"/>
</g>
</svg>
